<?xml version="1.0" standalone="no"?><svg xmlns="http://www.w3.org/2000/svg" viewBox="0 0 1440 320"><path fill="#000" fill-opacity="1" d="M0,128L30,149.3C60,171,120,213,180,213.3C240,213,300,171,360,149.3C420,128,480,128,540,144C600,160,660,192,720,181.3C780,171,840,117,900,85.3C960,53,1020,43,1080,69.3C1140,96,1200,160,1260,181.3C1320,203,1380,181,1410,170.7L1440,160L1440,0L1410,0C1380,0,1320,0,1260,0C1200,0,1140,0,1080,0C1020,0,960,0,900,0C840,0,780,0,720,0C660,0,600,0,540,0C480,0,420,0,360,0C300,0,240,0,180,0C120,0,60,0,30,0L0,0Z"></path></svg>